<?xml version="1.0" encoding="UTF-8"?>
<svg id="Warstwa_1" data-name="Warstwa 1" xmlns="http://www.w3.org/2000/svg" viewBox="0 0 215.29 94.35">
  <path d="M215.29,94.35H0V0H215.29V94.35ZM3.69,90.67H211.61V3.69H3.69V90.67Z"/>
  <g>
    <rect x="146.98" y="49.79" width="41.96" height="3.66" transform="translate(335.92 103.24) rotate(180)"/>
    <path d="M59.11,42.03l1.62-8.91h-21.77c-3.33,5.18-6.61,6.52-10.83,7.04l-1.57,8.53c3.09-.19,5.93-.86,7.89-2.35l-3.92,21.75h14.33l2.2-12.31h8.82l1.62-8.82h-8.82l.88-4.94h9.55Z"/>
    <path d="M99.27,68.1h-11.95l3.09-17.06-7.4,10.16h-5.44l-3.82-10.16-3.09,17.06h-11.27l6.32-34.98h11.61l5.58,13.94,10.09-13.94h12.59l-6.32,34.98Z"/>
    <path d="M133.32,45.77c-.64-.96-2.74-3.59-6.91-3.59-4.9,0-8.23,4.65-8.23,9.78,0,4.36,2.6,7.19,7.15,7.19,2.4,0,4.6-1.01,6.81-2.54l4.36,7.95c-3.63,2.49-7.45,4.07-12.83,4.07-10.83,0-17.39-6.47-17.39-15.77,0-10.78,8.77-20.37,21.11-20.37,6.61,0,10.68,3.02,13.08,5.85l-7.15,7.43Z"/>
    <g>
      <path d="M156.12,45.69c-5.6,0-9.14-3.56-9.14-8.52,0-6.27,5.09-10.92,11.18-10.92,4.29,0,6.25,1.6,7.51,3.43l-4.42,3.56c-.41-.67-1.5-1.81-3.56-1.81-3.02,0-4.44,3-4.44,5.5s1.32,4.16,3.56,4.16c1.6,0,2.84-.85,3.43-1.96h-4.08l.83-4.67h10.1c-.49,7.05-4.18,11.23-10.97,11.23Z"/>
      <path d="M177.86,45.69c-5.47,0-9.55-3.25-9.55-8.73s4.44-10.69,11.26-10.69c5.78,0,9.37,3.82,9.37,8.62,0,5.94-4.54,10.79-11.08,10.79Zm1.14-14.43c-2.56,0-4.42,2.35-4.42,5.5,0,2.35,1.5,3.92,3.64,3.92,2.61,0,4.47-2.12,4.47-5.4,0-2.4-1.34-4.03-3.69-4.03Z"/>
    </g>
  </g>
</svg>