<?xml version="1.0" encoding="UTF-8"?>
<svg id="a" data-name="Layer 1" xmlns="http://www.w3.org/2000/svg" viewBox="0 0 207.5 47.83">
  <defs>
    <style>
      .b {
        fill: #1d1d1b;
      }
    </style>
  </defs>
  <path class="b" d="M67,43.26c-5.64-3.41-11.05-8.8-17.41-10.7H8.38v.22c0,.4-.33,.73-.73,.73H3.16c-.4,0-.73-.33-.73-.73v-.22H.73c-.4,0-.73-.32-.73-.73V15.99c0-.4,.33-.73,.73-.73h1.71v-.22c0-.4,.33-.73,.73-.73H7.66c.4,0,.73,.33,.73,.73v.22H49.59c6.37-1.9,11.77-7.28,17.42-10.7C77.43-1.75,91.07,.33,102.79,.33h99.01s4.53,.17,5.71,3.53V43.98c-1.17,3.36-5.71,3.52-5.71,3.52H102.79c-11.72,0-25.36,2.07-35.78-4.24Z"/>
</svg>