<?xml version="1.0" encoding="UTF-8"?>
<svg id="a" data-name="Tryb izolacji" xmlns="http://www.w3.org/2000/svg" viewBox="0 0 201.88 215.33">
  <defs>
    <style>
      .b {
        fill: #1d1d1b;
      }
    </style>
  </defs>
  <path class="b" d="M97.5,120.74c24.11-21.8,37.26-38.09,41.12-64.97,2.53-17.54,1.3-36.24,14.69-38.11,32.52-4.51,64.74,59.55,39.55,126.37-19.51,51.69-78.17,91.67-113.59,60.08-16.41-14.65-7.8-59.83,18.23-83.38Z"/>
  <path class="b" d="M104.39,94.58c-24.11,21.79-37.27,38.11-41.13,64.95-2.54,17.55-1.3,36.26-14.71,38.11-32.52,4.52-64.73-59.55-39.52-126.36C28.53,19.59,87.2-20.36,122.61,11.19c16.41,14.66,7.8,59.84-18.22,83.39Z"/>
</svg>