<?xml version="1.0" encoding="utf-8"?>
<!-- Generator: Adobe Illustrator 26.3.1, SVG Export Plug-In . SVG Version: 6.00 Build 0)  -->
<svg version="1.1" id="Warstwa_1" xmlns="http://www.w3.org/2000/svg" xmlns:xlink="http://www.w3.org/1999/xlink" x="0px" y="0px"
	 viewBox="0 0 447.42 136.42" style="enable-background:new 0 0 447.42 136.42;" xml:space="preserve">
<g>
	<rect x="288.23" y="69.31" transform="matrix(-1 -1.224647e-16 1.224647e-16 -1 668.5099 148.4775)" width="92.06" height="9.86"/>
	<g>
		<path d="M139,68.11l20.47,50.83h-35.49l-9.04-24.18l-18.08,24.18H62.05l38.41-49.53L82.65,24.04h35.49l6.51,18.46l13.69-18.46
			h34.82L139,68.11z"/>
		<path d="M238.01,68.11l20.47,50.83h-35.49l-9.04-24.18l-18.07,24.18h-34.82l38.41-49.53l-17.81-45.37h35.49l6.51,18.46
			l13.69-18.46h34.82L238.01,68.11z"/>
	</g>
	<g>
		<path d="M303.85,59.35l-9.18-10.23c7.08-2.31,14.78-7.15,17.65-10.93c-2.52,1.33-4.62,1.89-7.43,1.89
			c-8.76,0-16.25-4.9-16.25-14.57c0-11.63,10.3-20.04,23.47-20.04c12.4,0,20.81,6.87,20.81,18.49
			C332.92,39.31,318.98,52.97,303.85,59.35z M311.48,17.53c-3.78,0-6.52,3.22-6.52,6.73c0,3.22,2.73,5.18,6.02,5.18
			c3.92,0,6.23-3.64,6.23-6.73C317.23,19.35,314.92,17.53,311.48,17.53z"/>
		<path d="M351.21,59.35l-9.18-10.23c7.08-2.31,14.78-7.15,17.65-10.93c-2.52,1.33-4.62,1.89-7.43,1.89
			c-8.76,0-16.25-4.9-16.25-14.57c0-11.63,10.3-20.04,23.47-20.04c12.4,0,20.81,6.87,20.81,18.49
			C380.28,39.31,366.34,52.97,351.21,59.35z M358.84,17.53c-3.78,0-6.52,3.22-6.52,6.73c0,3.22,2.73,5.18,6.02,5.18
			c3.92,0,6.23-3.64,6.23-6.73C364.59,19.35,362.28,17.53,358.84,17.53z"/>
	</g>
</g>
</svg>
