<svg xmlns="http://www.w3.org/2000/svg" viewBox="0 0 388.94 116.15"><defs><style>.a{fill:#020203;}</style></defs><rect class="a" x="294.5" y="64.95" width="92.06" height="9.86"/><path class="a" d="M80.15,43.09H42L39,54.14a29.31,29.31,0,0,1,13.82-3.51c13.82,0,28,7.67,28,25.35,0,19.89-14.75,40.17-43.46,40.17-16.48,0-29.5-7-37.35-16L17.68,82.35c5.45,6.11,11.56,10.14,19.14,10.14,8.64,0,13.42-6.11,13.42-12.22,0-5.2-4.25-8.32-11.3-8.32-5.18,0-10.23,2.34-15.95,6L9.83,70.52,24.18,19.69H84.39Z"/><path class="a" d="M126.13,116.15c-24.19,0-38.94-13.39-38.94-33.93,0-29.51,26.31-53.82,55.16-66l17.28,19.24c-13.42,4.29-27.91,13-33.36,20a29.49,29.49,0,0,1,14.22-3.51c12.36,0,30.57,6.76,30.57,26.65C171.05,101.72,149.92,116.15,126.13,116.15Zm3.06-44.46A12,12,0,0,0,117,83.91c0,6,3.72,9.88,10.9,9.88S140,87.81,140,81.31C140,75.59,135.44,71.69,129.19,71.69Z"/><path class="a" d="M216,116.15c-24.19,0-38.94-13.39-38.94-33.93,0-29.51,26.31-53.82,55.16-66l17.28,19.24c-13.42,4.29-27.91,13-33.36,20a29.49,29.49,0,0,1,14.22-3.51c12.36,0,30.57,6.76,30.57,26.65C260.89,101.72,239.76,116.15,216,116.15ZM219,71.69A12,12,0,0,0,206.8,83.91c0,6,3.72,9.88,10.9,9.88s12.09-6,12.09-12.48C229.79,75.59,225.28,71.69,219,71.69Z"/><path class="a" d="M313.63,53.87c-12.75,0-20.53-7.22-20.53-18.28,0-15.9,13.87-29,29.07-35.59l9.11,10.37c-7.08,2.31-14.71,7-17.58,10.79a15.28,15.28,0,0,1,7.5-1.89c6.51,0,16.11,3.64,16.11,14.36C337.31,46.09,326.17,53.87,313.63,53.87Zm1.61-24a6.41,6.41,0,0,0-6.44,6.58c0,3.22,2,5.32,5.74,5.32a6.47,6.47,0,0,0,6.37-6.73C320.92,32,318.53,29.91,315.24,29.91Z"/><path class="a" d="M362.25,54c-13.87,0-20.88-9.53-20.88-22.42,0-16.18,11-30.61,26.48-30.61,13.66,0,21.09,9.46,21.09,22C388.94,39.58,378,54,362.25,54Zm4.9-40c-6.16,0-9.46,9.81-9.46,18.21,0,5.39,1.89,8.55,5.39,8.55,5.88,0,9.46-9,9.46-18.77C372.55,16.6,370.59,14,367.15,14Z"/></svg>