<?xml version="1.0" encoding="UTF-8"?><svg id="Warstwa_2" xmlns="http://www.w3.org/2000/svg" viewBox="0 0 318.23 113.47"><g id="Warstwa_1-2"><g><rect x="226.18" y="63.83" width="92.06" height="9.86" transform="translate(544.41 137.52) rotate(180)"/><g><path d="M76.95,62.64l20.47,50.83H61.93l-9.04-24.18-18.08,24.18H0L38.41,63.94,20.6,18.57H56.09l6.51,18.46,13.69-18.46h34.82l-34.16,44.07Z"/><path d="M175.96,62.64l20.47,50.83h-35.49l-9.04-24.18-18.07,24.18h-34.82l38.41-49.53-17.81-45.37h35.49l6.51,18.46,13.69-18.46h34.82l-34.16,44.07Z"/></g><g><path d="M241.8,53.87l-9.18-10.23c7.08-2.31,14.78-7.15,17.65-10.93-2.52,1.33-4.62,1.89-7.43,1.89-8.76,0-16.25-4.9-16.25-14.57,0-11.63,10.3-20.04,23.47-20.04,12.4,0,20.81,6.87,20.81,18.49,0,15.34-13.94,29-29.07,35.38Zm7.64-41.82c-3.78,0-6.52,3.22-6.52,6.73,0,3.22,2.73,5.18,6.02,5.18,3.92,0,6.23-3.64,6.23-6.73,0-3.36-2.31-5.18-5.74-5.18Z"/><path d="M289.16,53.87l-9.18-10.23c7.08-2.31,14.78-7.15,17.65-10.93-2.52,1.33-4.62,1.89-7.43,1.89-8.76,0-16.25-4.9-16.25-14.57,0-11.63,10.3-20.04,23.47-20.04,12.4,0,20.81,6.87,20.81,18.49,0,15.34-13.94,29-29.07,35.38Zm7.64-41.82c-3.78,0-6.52,3.22-6.52,6.73,0,3.22,2.73,5.18,6.02,5.18,3.92,0,6.23-3.64,6.23-6.73,0-3.36-2.31-5.18-5.74-5.18Z"/></g></g></g></svg>