<?xml version="1.0" encoding="UTF-8"?>
<svg id="Warstwa_2" xmlns="http://www.w3.org/2000/svg" viewBox="0 0 138.16 67.51">
    <g id="Warstwa_1-2">
        <g>
            <g>
                <path d="M138.16,67.51H0V0H138.16V67.51ZM3.21,64.3H134.95V3.21H3.21v61.09Z"/>
                <g>
                    <rect x="92.64" y="30.83" width="25.14" height="2.32"/>
                    <path d="M40,26.18l.97-5.34h-13.04c-2,3.1-3.96,3.9-6.49,4.22l-.94,5.11c1.85-.11,3.55-.52,4.72-1.41l-2.35,13.03h8.59l1.32-7.38h5.28l.97-5.28h-5.28l.53-2.96h5.72Z"/>
                    <path d="M64.07,41.79h-7.16l1.85-10.22-4.43,6.09h-3.26l-2.29-6.09-1.85,10.22h-6.75l3.79-20.95h6.95l3.35,8.35,6.05-8.35h7.54l-3.79,20.95Z"/>
                    <path d="M84.46,28.42c-.38-.57-1.64-2.15-4.14-2.15-2.93,0-4.93,2.78-4.93,5.86,0,2.61,1.56,4.31,4.28,4.31,1.44,0,2.76-.6,4.08-1.52l2.61,4.77c-2.17,1.49-4.46,2.44-7.69,2.44-6.49,0-10.42-3.88-10.42-9.44,0-6.46,5.25-12.2,12.65-12.2,3.96,0,6.4,1.81,7.84,3.5l-4.28,4.43Z"/>
                    <g>
                        <path d="M98.12,28.37c-3.36,0-5.48-2.13-5.48-5.1,0-3.76,3.05-6.54,6.7-6.54,2.57,0,3.74,.96,4.5,2.06l-2.65,2.13c-.25-.4-.9-1.08-2.13-1.08-1.81,0-2.66,1.79-2.66,3.29s.79,2.49,2.13,2.49c.96,0,1.7-.51,2.06-1.18h-2.44l.5-2.8h6.05c-.3,4.23-2.51,6.73-6.58,6.73Z"/>
                        <path d="M111.14,28.37c-3.28,0-5.72-1.95-5.72-5.23s2.66-6.4,6.74-6.4c3.46,0,5.61,2.29,5.61,5.17,0,3.55-2.71,6.46-6.63,6.46Zm.69-8.64c-1.53,0-2.65,1.41-2.65,3.29,0,1.41,.9,2.35,2.18,2.35,1.56,0,2.68-1.27,2.68-3.23,0-1.44-.81-2.41-2.21-2.41Z"/>
                    </g>
                </g>
            </g>
            <g>
                <path d="M22.27,49.28l.2-1.04h-.83l.13-.63h.83l.28-1.44h.67l-.28,1.44h1.1l.28-1.44h.68l-.28,1.44h.74l-.12,.63h-.75l-.2,1.04h.8l-.12,.63h-.81l-.28,1.44h-.67l.28-1.44h-1.11l-.28,1.44h-.67l.28-1.44h-.72l.13-.63h.72Zm1.77,0l.21-1.04h-1.11l-.2,1.04h1.1Z"/>
                <path d="M26.71,51.35v-5.19h1.96c1.11,0,1.77,.59,1.77,1.56,0,.72-.36,1.24-1.01,1.44l1.06,2.19h-.78l-.97-2.05h-1.33v2.05h-.7Zm.71-2.68h1.26c.65,0,1.03-.35,1.03-.95s-.39-.93-1.03-.93h-1.26v1.88Z"/>
                <path d="M30.98,50.38c0-.65,.48-1.05,1.31-1.11l1.11-.09v-.1c0-.59-.35-.8-.83-.8-.57,0-.89,.25-.89,.68h-.59c0-.73,.6-1.21,1.51-1.21s1.46,.46,1.46,1.41v2.21h-.57l-.07-.57c-.18,.4-.66,.65-1.23,.65-.76,0-1.21-.43-1.21-1.07Zm2.42-.54v-.19l-.9,.07c-.6,.06-.84,.29-.84,.63,0,.37,.27,.56,.71,.56,.65,0,1.03-.41,1.03-1.07Z"/>
                <path d="M34.76,49.61c0-1.08,.63-1.87,1.67-1.87,.54,0,.99,.24,1.23,.67v-2.34h.67v5.29h-.6l-.06-.64c-.23,.48-.7,.73-1.26,.73-1.03,0-1.65-.77-1.65-1.84Zm2.89-.02c0-.72-.42-1.24-1.11-1.24s-1.09,.52-1.09,1.24,.4,1.24,1.09,1.24,1.11-.51,1.11-1.24Z"/>
                <path d="M39.19,46.56c0-.25,.2-.45,.45-.45s.45,.19,.45,.45c0,.24-.2,.45-.45,.45s-.45-.2-.45-.45Zm.12,1.28h.68v3.51h-.68v-3.51Z"/>
                <path d="M42.45,47.74c.88,0,1.5,.5,1.62,1.29h-.68c-.12-.45-.47-.68-.93-.68-.64,0-1.08,.49-1.08,1.25s.41,1.24,1.05,1.24c.48,0,.84-.25,.96-.67h.68c-.14,.76-.79,1.27-1.64,1.27-1.03,0-1.72-.73-1.72-1.84,.02-1.1,.72-1.86,1.74-1.86Z"/>
                <path d="M44.63,50.38c0-.65,.48-1.05,1.31-1.11l1.11-.09v-.1c0-.59-.35-.8-.83-.8-.57,0-.89,.25-.89,.68h-.59c0-.73,.6-1.21,1.51-1.21s1.46,.46,1.46,1.41v2.21h-.58l-.07-.57c-.18,.4-.66,.65-1.23,.65-.76,0-1.2-.43-1.2-1.07Zm2.42-.54v-.19l-.9,.07c-.6,.06-.84,.29-.84,.63,0,.37,.27,.56,.71,.56,.64,0,1.03-.41,1.03-1.07Z"/>
                <path d="M48.65,51.35v-5.29h.68v5.29h-.68Z"/>
                <path d="M49.92,51.35l1.9-5.19h.78l1.9,5.19h-.74l-.47-1.29h-2.18l-.46,1.29h-.73Zm1.4-1.9h1.76l-.8-2.17c-.04-.1-.07-.22-.09-.3-.01,.07-.05,.19-.09,.3l-.78,2.17Z"/>
                <path d="M54.71,49.61c0-1.08,.63-1.87,1.67-1.87,.54,0,.99,.24,1.23,.67v-2.34h.67v5.29h-.6l-.06-.64c-.23,.48-.7,.73-1.26,.73-1.03,0-1.65-.77-1.65-1.84Zm2.89-.02c0-.72-.42-1.24-1.11-1.24s-1.09,.52-1.09,1.24,.4,1.24,1.09,1.24,1.11-.51,1.11-1.24Z"/>
                <path d="M58.82,47.84h.72l.77,1.96c.12,.33,.22,.63,.28,.84,.06-.23,.17-.53,.29-.84l.78-1.96h.7l-1.47,3.51h-.67l-1.4-3.51Z"/>
                <path d="M62.53,49.6c0-1.1,.7-1.86,1.72-1.86s1.65,.69,1.65,1.73v.25h-2.72c.05,.75,.44,1.16,1.11,1.16,.52,0,.87-.22,.98-.62h.63c-.17,.75-.76,1.18-1.63,1.18-1.03,0-1.74-.75-1.74-1.84Zm.66-.32h2.03c0-.58-.38-.97-.98-.97s-.96,.35-1.05,.97Z"/>
                <path d="M68.66,48.43h-.3c-.64,0-1.03,.39-1.03,1.06v1.86h-.68v-3.51h.63l.04,.53c.14-.37,.5-.61,.98-.61,.12,0,.22,0,.36,.04v.63Z"/>
                <path d="M69.76,51.35v-2.95h-.69v-.57h.69v-1.1h.68v1.1h.69v.57h-.69v2.95h-.68Z"/>
                <path d="M71.61,46.56c0-.25,.2-.45,.45-.45s.45,.19,.45,.45c0,.24-.2,.45-.45,.45s-.45-.2-.45-.45Zm.12,1.28h.68v3.51h-.68v-3.51Z"/>
                <path d="M73.74,50.33c0,.36,.27,.58,.72,.58s.75-.19,.75-.52c0-.24-.11-.38-.48-.47l-.62-.14c-.63-.15-.92-.46-.92-.98,0-.65,.55-1.06,1.32-1.06s1.27,.43,1.29,1.1h-.65c0-.35-.25-.58-.66-.58s-.66,.19-.66,.51c0,.24,.17,.4,.52,.48l.62,.15c.6,.14,.89,.42,.89,.94,0,.67-.57,1.09-1.41,1.09s-1.35-.44-1.35-1.11h.64Z"/>
                <path d="M76.48,46.56c0-.25,.2-.45,.45-.45s.45,.19,.45,.45c0,.24-.2,.45-.45,.45-.24,0-.45-.2-.45-.45Zm.12,1.28h.68v3.51h-.68v-3.51Z"/>
                <path d="M78.25,51.35v-3.51h.61l.07,.54c.22-.4,.67-.64,1.16-.64,.93,0,1.35,.57,1.35,1.47v2.15h-.68v-2c0-.71-.33-1-.85-1-.63,0-1,.45-1,1.13v1.86h-.66Z"/>
                <path d="M83.82,47.74c.57,0,1.01,.26,1.23,.7l.05-.6h.6v3.37c0,1.11-.68,1.81-1.76,1.81-.96,0-1.61-.54-1.74-1.43h.68c.09,.52,.47,.82,1.06,.82,.66,0,1.09-.43,1.09-1.1v-.7c-.23,.41-.69,.65-1.24,.65-1,0-1.63-.77-1.63-1.75,0-.99,.64-1.77,1.66-1.77Zm.09,2.93c.68,0,1.1-.49,1.1-1.18s-.4-1.16-1.09-1.16-1.08,.52-1.08,1.16,.41,1.18,1.07,1.18Z"/>
            </g>
        </g>
    </g>
</svg>