<?xml version="1.0" encoding="UTF-8"?>
<svg xmlns="http://www.w3.org/2000/svg" xmlns:xlink="http://www.w3.org/1999/xlink" viewBox="0 0 38.48 80.39">
  <defs>
    <style>
      .i {
        fill: url(#f);
      }

      .j {
        fill: url(#g);
      }

      .k {
        fill: url(#h);
      }

      .l {
        fill: url(#d);
      }

      .m {
        fill: url(#e);
      }
    </style>
    <linearGradient id="d" x1="-5.17" y1="72.45" x2="155.5" y2="50.72" gradientTransform="matrix(1, 0, 0, 1, 0, 0)" gradientUnits="userSpaceOnUse">
      <stop offset="0" stop-color="#a6254a"/>
      <stop offset=".32" stop-color="#b44935"/>
      <stop offset=".95" stop-color="#d38012"/>
    </linearGradient>
    <linearGradient id="e" x1="-4.51" y1="77.31" x2="156.16" y2="55.59" xlink:href="#d"/>
    <linearGradient id="f" x1="-4.37" y1="78.38" x2="156.31" y2="56.65" xlink:href="#d"/>
    <linearGradient id="g" x1="-10.74" y1="31.27" x2="149.94" y2="9.55" xlink:href="#d"/>
    <linearGradient id="h" x1="-11.91" y1="22.57" x2="148.76" y2=".84" xlink:href="#d"/>
  </defs>
  <g id="a" data-name="Layer 1"/>
  <g id="b" data-name="Layer 2">
    <g id="c" data-name="Layer 1">
      <g>
        <path class="l" d="M19.24,80.39c-1.24,0-2.25-1.01-2.25-2.25v-17.99c0-1.24,1.01-2.25,2.25-2.25s2.25,1.01,2.25,2.25v17.99c0,1.24-1.01,2.25-2.25,2.25Z"/>
        <path class="m" d="M19.24,80.39c-.53,0-1.05-.18-1.48-.56l-8-6.99c-.94-.82-1.03-2.24-.21-3.17,.82-.94,2.24-1.03,3.17-.21l8,6.99c.94,.82,1.03,2.24,.21,3.17-.44,.51-1.07,.77-1.69,.77Z"/>
        <path class="i" d="M19.24,80.39c-.63,0-1.25-.26-1.69-.77-.82-.93-.72-2.36,.21-3.17l7.99-6.99c.94-.82,2.36-.72,3.18,.21,.82,.93,.72,2.36-.21,3.17l-7.99,6.99c-.43,.37-.96,.56-1.48,.56Z"/>
        <path class="j" d="M24.15,54.44H14.33c-7.9,0-14.33-6.43-14.33-14.33V14.33C0,6.43,6.43,0,14.33,0h9.82c7.9,0,14.32,6.43,14.32,14.33v25.78c0,7.9-6.43,14.33-14.32,14.33ZM14.33,4.5c-5.42,0-9.83,4.41-9.83,9.83v25.78c0,5.42,4.41,9.83,9.83,9.83h9.82c5.42,0,9.82-4.41,9.82-9.83V14.33c0-5.42-4.41-9.83-9.82-9.83H14.33Z"/>
        <path class="k" d="M19.24,23.95c-1.24,0-2.25-1.01-2.25-2.25v-6.69c0-1.24,1.01-2.25,2.25-2.25s2.25,1.01,2.25,2.25v6.69c0,1.24-1.01,2.25-2.25,2.25Z"/>
      </g>
    </g>
  </g>
</svg>