<svg xmlns="http://www.w3.org/2000/svg" viewBox="0 0 348.13 113.48"><defs><style>.a{fill:#020203;}</style></defs><rect class="a" x="256.07" y="63.84" width="92.06" height="9.86"/><path class="a" d="M42,113.48H10.77l10.63-59c-5.32,4-13,5.85-21.4,6.37L4.25,37.69c11.43-1.43,20.33-5.07,29.37-19.11H59.14Z"/><path class="a" d="M139.54,93.59H128.38l-3.59,19.89H95.55l3.59-19.89H55l3.19-17.42L111,18.58h31L132,73.44h11.16ZM85.19,73.44h17.54l4.39-24.18Z"/><path class="a" d="M210.11,71.88,191,89.43h26.18l-4.39,24H136.34l49.31-52.26c5.18-5.59,8.77-9.88,8.77-13.65,0-4.16-2.79-6.24-6.78-6.24-4.39,0-8.24,3.12-9.17,10.53l-.4,3H149.89l.27-4.29C151.49,28.07,169,17,189.9,17c22.06,0,36,10,36,26.65C225.93,55.63,220,62.91,210.11,71.88Z"/><path class="a" d="M271.69,53.88l-9.18-10.23c7.08-2.31,14.78-7.15,17.65-10.93a14.66,14.66,0,0,1-7.43,1.89c-8.76,0-16.25-4.9-16.25-14.57,0-11.63,10.3-20,23.47-20,12.4,0,20.81,6.87,20.81,18.49C300.76,33.85,286.82,47.51,271.69,53.88Zm7.64-41.82a6.64,6.64,0,0,0-6.52,6.73c0,3.22,2.73,5.18,6,5.18,3.92,0,6.23-3.64,6.23-6.73C285.07,13.88,282.76,12.06,279.33,12.06Z"/><path class="a" d="M319.05,53.88l-9.18-10.23c7.08-2.31,14.78-7.15,17.65-10.93a14.66,14.66,0,0,1-7.43,1.89c-8.76,0-16.25-4.9-16.25-14.57,0-11.63,10.3-20,23.47-20,12.4,0,20.81,6.87,20.81,18.49C348.12,33.85,334.18,47.51,319.05,53.88Zm7.64-41.82a6.64,6.64,0,0,0-6.52,6.73c0,3.22,2.73,5.18,6,5.18,3.92,0,6.23-3.64,6.23-6.73C332.43,13.88,330.12,12.06,326.69,12.06Z"/></svg>