<?xml version="1.0" encoding="utf-8"?>
<!-- Generator: Adobe Illustrator 26.3.1, SVG Export Plug-In . SVG Version: 6.00 Build 0)  -->
<svg version="1.1" id="Warstwa_1" xmlns="http://www.w3.org/2000/svg" xmlns:xlink="http://www.w3.org/1999/xlink" x="0px" y="0px"
	 viewBox="0 0 447.42 136.42" style="enable-background:new 0 0 447.42 136.42;" xml:space="preserve">
<g>
	<rect x="333.54" y="69" transform="matrix(-1 -1.224647e-16 1.224647e-16 -1 759.1287 147.8587)" width="92.06" height="9.86"/>
	<g>
		<path d="M86.54,67.8l20.47,50.83H71.52l-9.04-24.18l-18.08,24.18H9.59L48,69.1L30.19,23.73h35.49l6.51,18.46l13.69-18.46h34.82
			L86.54,67.8z"/>
		<path d="M185.55,67.8l20.47,50.83h-35.49l-9.04-24.18l-18.07,24.18H108.6l38.41-49.53L129.2,23.73h35.49l6.51,18.46l13.69-18.46
			h34.82L185.55,67.8z"/>
		<path d="M284.56,67.8l20.47,50.83h-35.49l-9.04-24.18l-18.08,24.18h-34.82l38.41-49.53l-17.81-45.37h35.49l6.51,18.46l13.69-18.46
			h34.82L284.56,67.8z"/>
	</g>
	<g>
		<path d="M349.16,59.04l-9.18-10.23c7.08-2.31,14.78-7.15,17.65-10.93c-2.52,1.33-4.62,1.89-7.43,1.89
			c-8.76,0-16.25-4.9-16.25-14.57c0-11.63,10.3-20.04,23.47-20.04c12.4,0,20.81,6.87,20.81,18.49
			C378.23,39,364.29,52.66,349.16,59.04z M356.79,17.22c-3.78,0-6.52,3.22-6.52,6.73c0,3.22,2.73,5.18,6.02,5.18
			c3.92,0,6.23-3.64,6.23-6.73C362.54,19.04,360.23,17.22,356.79,17.22z"/>
		<path d="M396.52,59.04l-9.18-10.23c7.08-2.31,14.78-7.15,17.65-10.93c-2.52,1.33-4.62,1.89-7.43,1.89
			c-8.76,0-16.25-4.9-16.25-14.57c0-11.63,10.3-20.04,23.47-20.04c12.4,0,20.81,6.87,20.81,18.49
			C425.59,39,411.65,52.66,396.52,59.04z M404.15,17.22c-3.78,0-6.52,3.22-6.52,6.73c0,3.22,2.73,5.18,6.02,5.18
			c3.92,0,6.23-3.64,6.23-6.73C409.9,19.04,407.59,17.22,404.15,17.22z"/>
	</g>
</g>
</svg>
